<svg xmlns="http://www.w3.org/2000/svg" width="61.891" height="63.966" viewBox="0 0 61.891 63.966">
  <defs>
    <style>
      .cls-1 {
        fill: #c4c0c1;
      }
    </style>
  </defs>
  <g id="Group_1578" data-name="Group 1578" transform="translate(-1448.507 -430.834)">
    <path id="Icon_awesome-file-pdf" data-name="Icon awesome-file-pdf" class="cls-1" d="M11.388,16.034a6.04,6.04,0,0,1-.125-2.936C11.789,13.1,11.739,15.408,11.388,16.034Zm-.106,2.955A28.889,28.889,0,0,1,9.5,22.915a23.054,23.054,0,0,1,3.938-1.371A8.11,8.11,0,0,1,11.282,18.989ZM5.391,26.8c0,.05.826-.338,2.185-2.517A8.653,8.653,0,0,0,5.391,26.8ZM15.527,10.017h8.515V30.553a1.5,1.5,0,0,1-1.5,1.5H1.5a1.5,1.5,0,0,1-1.5-1.5V1.5A1.5,1.5,0,0,1,1.5,0H14.024V8.515A1.507,1.507,0,0,0,15.527,10.017Zm-.5,10.756a6.284,6.284,0,0,1-2.673-3.368c.282-1.158.726-2.918.388-4.019a1.568,1.568,0,0,0-2.993-.426c-.313,1.146-.025,2.761.507,4.821A58.791,58.791,0,0,1,7.7,23.153c-.006,0-.006.006-.013.006-1.7.87-4.608,2.786-3.412,4.257a1.945,1.945,0,0,0,1.346.626c1.121,0,2.235-1.127,3.825-3.869a35.688,35.688,0,0,1,4.946-1.453A9.488,9.488,0,0,0,18.4,23.941a1.621,1.621,0,0,0,1.233-2.717c-.87-.851-3.4-.607-4.608-.451ZM23.6,6.574,17.468.438A1.5,1.5,0,0,0,16.4,0h-.376V8.014h8.014V7.632A1.5,1.5,0,0,0,23.6,6.574ZM18.964,22.558c.257-.169-.157-.745-2.68-.563C18.607,22.984,18.964,22.558,18.964,22.558Z" transform="translate(1448.507 439.45) rotate(-21)"/>
    <path id="Icon_awesome-file-pdf-2" data-name="Icon awesome-file-pdf" class="cls-1" d="M20.451,28.793c-.562-1.8-.551-5.273-.225-5.273C21.171,23.52,21.081,27.669,20.451,28.793ZM20.26,34.1a51.879,51.879,0,0,1-3.193,7.049,41.4,41.4,0,0,1,7.072-2.462A14.564,14.564,0,0,1,20.26,34.1ZM9.68,48.131c0,.09,1.484-.607,3.924-4.52C12.851,44.32,10.332,46.366,9.68,48.131Zm18.2-30.142h15.29V54.866a2.692,2.692,0,0,1-2.7,2.7H2.7a2.692,2.692,0,0,1-2.7-2.7V2.7A2.692,2.692,0,0,1,2.7,0H25.184V15.29A2.706,2.706,0,0,0,27.883,17.989Zm-.9,19.315a11.284,11.284,0,0,1-4.8-6.049c.506-2.08,1.3-5.239.7-7.218-.528-3.305-4.767-2.979-5.374-.765-.562,2.057-.045,4.958.911,8.657a105.574,105.574,0,0,1-4.587,9.646c-.011,0-.011.011-.022.011-3.047,1.563-8.275,5-6.127,7.645A3.494,3.494,0,0,0,10.1,50.357c2.012,0,4.014-2.024,6.869-6.948A64.086,64.086,0,0,1,25.848,40.8a17.039,17.039,0,0,0,7.2,2.192c3.283,0,3.508-3.6,2.215-4.879-1.563-1.529-6.1-1.091-8.275-.809Zm15.4-25.5L31.368.787A2.7,2.7,0,0,0,29.457,0h-.675V14.391H43.173v-.686A2.69,2.69,0,0,0,42.386,11.805Zm-8.331,28.7c.461-.3-.281-1.338-4.812-1.012C33.414,41.273,34.055,40.508,34.055,40.508Z" transform="translate(1467.225 437.236)"/>
  </g>
</svg>
