<svg xmlns="http://www.w3.org/2000/svg" width="76.029" height="76" viewBox="0 0 76.029 76">
  <defs>
    <style>
      .cls-1 {
        opacity: 0.2;
      }
    </style>
  </defs>
  <g id="Icon_ionic-ios-images" data-name="Icon ionic-ios-images" class="cls-1" transform="translate(0)">
    <path id="Path_2465" data-name="Path 2465" d="M28.451,14.241a.8.8,0,0,0-1.306-.119L11.552,34.856a.794.794,0,0,0,.543,1.306l27.334,2.375a.807.807,0,0,0,.764-1.2Z" transform="translate(10.624 14.132)"/>
    <path id="Path_2466" data-name="Path 2466" d="M29.16,18.8a.8.8,0,0,0-1.306-.119l-4.208,4.259a.794.794,0,0,0-.085.916l4.31,8.4a.79.79,0,0,0,.628.39l7.618.662a.807.807,0,0,0,.764-1.2Z" transform="translate(27.714 20.58)"/>
    <path id="Path_2467" data-name="Path 2467" d="M28.982,20.478a4.013,4.013,0,1,0-4.021-4.768A4.044,4.044,0,0,0,28.982,20.478Z" transform="translate(29.741 12.17)"/>
    <path id="Path_2468" data-name="Path 2468" d="M74.055,18.761l-11.164-.967L61.856,6.426a4.583,4.583,0,0,0-5.005-4.157L6.441,6.816A4.6,4.6,0,0,0,2.267,11.8L6.815,62.112a4.583,4.583,0,0,0,5.005,4.157l2.664-.238-.255,2.834a4.588,4.588,0,0,0,4.191,4.971l50.443,4.394a4.6,4.6,0,0,0,4.988-4.174l4.411-50.325A4.623,4.623,0,0,0,74.055,18.761ZM11.684,47.843a1.168,1.168,0,0,1-1.256-1.035L7.375,12.873A1.142,1.142,0,0,1,8.41,11.635L55.782,7.376a1.168,1.168,0,0,1,1.256,1.035l.814,8.959-34.223-3a4.6,4.6,0,0,0-4.988,4.174l-2.528,28.9ZM73.139,24.835,70.17,58.77a1.155,1.155,0,0,1-1.239,1.052l-3.156-.271L21.542,55.7A1.155,1.155,0,0,1,20.49,54.46l.645-7.449,2.324-26.486A1.155,1.155,0,0,1,24.7,19.474l33.595,2.935,5.039.441,8.755.764A1.108,1.108,0,0,1,73.139,24.835Z" transform="translate(-2.25 -2.249)"/>
  </g>
</svg>
