<svg xmlns="http://www.w3.org/2000/svg" width="26.5" height="35.333" viewBox="0 0 26.5 35.333">
  <defs>
    <style>
      .cls-1 {
        fill: #fff;
      }
    </style>
  </defs>
  <path id="Icon_awesome-file-pdf" data-name="Icon awesome-file-pdf" class="cls-1" d="M12.553,17.674c-.345-1.1-.338-3.237-.138-3.237C12.995,14.437,12.939,16.983,12.553,17.674Zm-.117,3.257a31.844,31.844,0,0,1-1.96,4.327,25.411,25.411,0,0,1,4.341-1.511A8.939,8.939,0,0,1,12.436,20.931ZM5.942,29.543c0,.055.911-.373,2.408-2.774A9.538,9.538,0,0,0,5.942,29.543Zm11.173-18.5H26.5V33.677a1.652,1.652,0,0,1-1.656,1.656H1.656A1.652,1.652,0,0,1,0,33.677V1.656A1.652,1.652,0,0,1,1.656,0h13.8V9.385A1.661,1.661,0,0,0,17.115,11.042ZM16.563,22.9a6.926,6.926,0,0,1-2.947-3.713c.311-1.277.8-3.216.428-4.43a1.728,1.728,0,0,0-3.3-.469c-.345,1.263-.028,3.043.559,5.314A64.8,64.8,0,0,1,8.488,25.52c-.007,0-.007.007-.014.007C6.6,26.486,3.4,28.6,4.713,30.22a2.144,2.144,0,0,0,1.484.69c1.235,0,2.464-1.242,4.217-4.265a39.336,39.336,0,0,1,5.452-1.6,10.459,10.459,0,0,0,4.417,1.346,1.786,1.786,0,0,0,1.36-3c-.959-.939-3.747-.669-5.079-.5ZM26.017,7.246,19.254.483A1.655,1.655,0,0,0,18.081,0h-.414V8.833H26.5V8.412A1.651,1.651,0,0,0,26.017,7.246ZM20.9,24.864c.283-.186-.173-.821-2.954-.621C20.51,25.334,20.9,24.864,20.9,24.864Z"/>
</svg>
