<svg xmlns="http://www.w3.org/2000/svg" width="13.963" height="13.962" viewBox="0 0 13.963 13.962">
  <defs>
    <style>
      .cls-1 {
        fill: #60012c;
      }
    </style>
  </defs>
  <path id="Icon_ionic-ios-call" data-name="Icon ionic-ios-call" class="cls-1" d="M18.049,15.435A11.728,11.728,0,0,0,15.6,13.8c-.734-.353-1-.345-1.523.029-.433.313-.712.6-1.21.494a7.22,7.22,0,0,1-2.432-1.8,7.169,7.169,0,0,1-1.8-2.432c-.105-.5.185-.778.494-1.21.374-.52.385-.789.029-1.523A11.5,11.5,0,0,0,7.519,4.9c-.534-.534-.654-.418-.949-.313a5.4,5.4,0,0,0-.869.462,2.621,2.621,0,0,0-1.043,1.1c-.207.447-.447,1.279.774,3.453a19.268,19.268,0,0,0,3.388,4.518h0l0,0,0,0h0a19.343,19.343,0,0,0,4.518,3.388c2.174,1.221,3.006.981,3.453.774a2.576,2.576,0,0,0,1.1-1.043,5.4,5.4,0,0,0,.462-.869C18.467,16.089,18.587,15.969,18.049,15.435Z" transform="translate(-4.49 -4.503)"/>
</svg>
