<svg xmlns="http://www.w3.org/2000/svg" width="24.334" height="24.334" viewBox="0 0 24.334 24.334">
  <path id="Icon_awesome-behance-square" data-name="Icon awesome-behance-square" d="M10.13,16.427c0,1.048-.76,1.38-1.695,1.38H5.986V14.933h2.5C9.495,14.938,10.13,15.357,10.13,16.427Zm-.418-4.47c0-.961-.744-1.19-1.57-1.19H5.991V13.2H8.31C9.131,13.2,9.712,12.842,9.712,11.956Zm7.186,1.26a1.619,1.619,0,0,0-1.722,1.613h3.379A1.548,1.548,0,0,0,16.9,13.217Zm7.436-8.359V23.977a2.608,2.608,0,0,1-2.607,2.607H2.607A2.608,2.608,0,0,1,0,23.977V4.857A2.608,2.608,0,0,1,2.607,2.25h19.12A2.608,2.608,0,0,1,24.334,4.857Zm-9.576,5.7h4.226V9.534H14.758Zm-2.336,5.991a2.7,2.7,0,0,0-1.9-2.8,2.028,2.028,0,0,0,1.423-2.01c0-2.075-1.548-2.58-3.335-2.58H3.694V19.588H8.75C10.646,19.577,12.422,18.67,12.422,16.552Zm8.218-.8c0-2.232-1.309-4.1-3.672-4.1a3.791,3.791,0,0,0-3.862,4,3.68,3.68,0,0,0,3.862,3.965A3.368,3.368,0,0,0,20.5,17.073h-1.83a1.718,1.718,0,0,1-1.64.983,1.7,1.7,0,0,1-1.852-1.917h5.443C20.63,16.014,20.64,15.878,20.64,15.748Z" transform="translate(0 -2.25)"/>
</svg>
