<svg xmlns="http://www.w3.org/2000/svg" width="231.614" height="24.342" viewBox="0 0 231.614 24.342">
  <g id="Group_38" data-name="Group 38" transform="translate(-844.507 -2961.516)">
    <path id="Icon_awesome-facebook-square" data-name="Icon awesome-facebook-square" d="M21.727,2.25H2.607A2.607,2.607,0,0,0,0,4.857V23.977a2.607,2.607,0,0,0,2.607,2.607h7.455V18.311H6.64V14.417h3.422V11.449c0-3.376,2.01-5.24,5.088-5.24a20.731,20.731,0,0,1,3.016.263V9.785h-1.7a1.947,1.947,0,0,0-2.2,2.1v2.528h3.736l-.6,3.894H14.272v8.273h7.455a2.607,2.607,0,0,0,2.607-2.607V4.857A2.607,2.607,0,0,0,21.727,2.25Z" transform="translate(844.507 2959.271)"/>
    <path id="Icon_awesome-instagram" data-name="Icon awesome-instagram" d="M12.171,8.168a6.241,6.241,0,1,0,6.241,6.241A6.231,6.231,0,0,0,12.171,8.168Zm0,10.3a4.057,4.057,0,1,1,4.057-4.057,4.065,4.065,0,0,1-4.057,4.057ZM20.123,7.912a1.456,1.456,0,1,1-1.456-1.456A1.452,1.452,0,0,1,20.123,7.912ZM24.257,9.39a7.2,7.2,0,0,0-1.966-5.1,7.251,7.251,0,0,0-5.1-1.966c-2.01-.114-8.033-.114-10.043,0a7.241,7.241,0,0,0-5.1,1.961A7.227,7.227,0,0,0,.08,9.384c-.114,2.01-.114,8.033,0,10.043a7.2,7.2,0,0,0,1.966,5.1,7.261,7.261,0,0,0,5.1,1.966c2.01.114,8.033.114,10.043,0a7.2,7.2,0,0,0,5.1-1.966,7.251,7.251,0,0,0,1.966-5.1c.114-2.01.114-8.028,0-10.038Zm-2.6,12.194A4.108,4.108,0,0,1,19.347,23.9c-1.6.636-5.4.489-7.175.489S6.593,24.528,5,23.9a4.108,4.108,0,0,1-2.314-2.314c-.636-1.6-.489-5.4-.489-7.175s-.141-5.578.489-7.175A4.108,4.108,0,0,1,5,4.92c1.6-.636,5.4-.489,7.175-.489s5.578-.141,7.175.489A4.108,4.108,0,0,1,21.66,7.233c.636,1.6.489,5.4.489,7.175S22.3,19.987,21.66,21.584Z" transform="translate(896.215 2959.278)"/>
    <path id="Icon_awesome-twitter-square" data-name="Icon awesome-twitter-square" d="M21.727,2.25H2.607A2.608,2.608,0,0,0,0,4.857V23.977a2.608,2.608,0,0,0,2.607,2.607h19.12a2.608,2.608,0,0,0,2.607-2.607V4.857A2.608,2.608,0,0,0,21.727,2.25Zm-2.656,8.625c.011.152.011.31.011.462A10.066,10.066,0,0,1,8.946,21.473a10.089,10.089,0,0,1-5.47-1.6,7.5,7.5,0,0,0,.858.043A7.142,7.142,0,0,0,8.756,18.4a3.567,3.567,0,0,1-3.33-2.471,3.839,3.839,0,0,0,1.608-.065,3.563,3.563,0,0,1-2.852-3.5V12.32a3.56,3.56,0,0,0,1.608.451A3.555,3.555,0,0,1,4.2,9.805a3.518,3.518,0,0,1,.483-1.8,10.115,10.115,0,0,0,7.344,3.726A3.57,3.57,0,0,1,18.109,8.48a6.981,6.981,0,0,0,2.26-.858A3.553,3.553,0,0,1,18.8,9.583a7.089,7.089,0,0,0,2.053-.554A7.5,7.5,0,0,1,19.071,10.875Z" transform="translate(948.382 2959.271)"/>
    <path id="Icon_awesome-linkedin" data-name="Icon awesome-linkedin" d="M22.6,2.25H1.733A1.746,1.746,0,0,0,0,4V24.829a1.746,1.746,0,0,0,1.733,1.754H22.6a1.75,1.75,0,0,0,1.738-1.754V4A1.75,1.75,0,0,0,22.6,2.25ZM7.355,23.108H3.748V11.495H7.36V23.108Zm-1.8-13.2A2.091,2.091,0,1,1,7.642,7.817,2.092,2.092,0,0,1,5.551,9.909Zm15.323,13.2H17.267V17.459c0-1.347-.027-3.08-1.874-3.08-1.879,0-2.167,1.467-2.167,2.982v5.747H9.62V11.495h3.46v1.586h.049a3.8,3.8,0,0,1,3.417-1.874c3.65,0,4.329,2.406,4.329,5.535Z" transform="translate(1000.084 2959.271)"/>
    <path id="Icon_awesome-behance-square" data-name="Icon awesome-behance-square" d="M10.13,16.427c0,1.048-.76,1.38-1.695,1.38H5.986V14.933h2.5C9.495,14.938,10.13,15.357,10.13,16.427Zm-.418-4.47c0-.961-.744-1.19-1.57-1.19H5.991V13.2H8.31C9.131,13.2,9.712,12.842,9.712,11.956Zm7.186,1.26a1.619,1.619,0,0,0-1.722,1.613h3.379A1.548,1.548,0,0,0,16.9,13.217Zm7.436-8.359V23.977a2.608,2.608,0,0,1-2.607,2.607H2.607A2.608,2.608,0,0,1,0,23.977V4.857A2.608,2.608,0,0,1,2.607,2.25h19.12A2.608,2.608,0,0,1,24.334,4.857Zm-9.576,5.7h4.226V9.534H14.758Zm-2.336,5.991a2.7,2.7,0,0,0-1.9-2.8,2.028,2.028,0,0,0,1.423-2.01c0-2.075-1.548-2.58-3.335-2.58H3.694V19.588H8.75C10.646,19.577,12.422,18.67,12.422,16.552Zm8.218-.8c0-2.232-1.309-4.1-3.672-4.1a3.791,3.791,0,0,0-3.862,4,3.68,3.68,0,0,0,3.862,3.965A3.368,3.368,0,0,0,20.5,17.073h-1.83a1.718,1.718,0,0,1-1.64.983,1.7,1.7,0,0,1-1.852-1.917h5.443C20.63,16.014,20.64,15.878,20.64,15.748Z" transform="translate(1051.787 2959.271)"/>
  </g>
</svg>
