<svg xmlns="http://www.w3.org/2000/svg" width="17.394" height="14.154" viewBox="0 0 17.394 14.154">
  <defs>
    <style>
      .cls-1 {
        fill: #52abf1;
      }
    </style>
  </defs>
  <path id="Icon_ionic-logo-twitter" data-name="Icon ionic-logo-twitter" class="cls-1" d="M18.807,6.177a7.214,7.214,0,0,1-2.049.564,3.581,3.581,0,0,0,1.57-1.976,7.091,7.091,0,0,1-2.267.866,3.567,3.567,0,0,0-6.174,2.44,3.494,3.494,0,0,0,.092.815A10.113,10.113,0,0,1,2.622,5.152,3.576,3.576,0,0,0,3.732,9.922,3.485,3.485,0,0,1,2.11,9.476V9.52a3.572,3.572,0,0,0,2.864,3.5,3.592,3.592,0,0,1-.94.125,3.367,3.367,0,0,1-.671-.066A3.574,3.574,0,0,0,6.7,15.561a7.155,7.155,0,0,1-4.434,1.53,7.233,7.233,0,0,1-.851-.052,9.975,9.975,0,0,0,5.462,1.614A10.093,10.093,0,0,0,17.038,8.488c0-.155,0-.31-.011-.461A7.264,7.264,0,0,0,18.807,6.177Z" transform="translate(-1.413 -4.5)"/>
</svg>
