<svg xmlns="http://www.w3.org/2000/svg" width="24.334" height="24.334" viewBox="0 0 24.334 24.334">
  <path id="Icon_awesome-linkedin" data-name="Icon awesome-linkedin" d="M22.6,2.25H1.733A1.746,1.746,0,0,0,0,4V24.829a1.746,1.746,0,0,0,1.733,1.754H22.6a1.75,1.75,0,0,0,1.738-1.754V4A1.75,1.75,0,0,0,22.6,2.25ZM7.355,23.108H3.748V11.495H7.36V23.108Zm-1.8-13.2A2.091,2.091,0,1,1,7.642,7.817,2.092,2.092,0,0,1,5.551,9.909Zm15.323,13.2H17.267V17.459c0-1.347-.027-3.08-1.874-3.08-1.879,0-2.167,1.467-2.167,2.982v5.747H9.62V11.495h3.46v1.586h.049a3.8,3.8,0,0,1,3.417-1.874c3.65,0,4.329,2.406,4.329,5.535Z" transform="translate(0 -2.25)"/>
</svg>
