<svg xmlns="http://www.w3.org/2000/svg" width="24.334" height="24.334" viewBox="0 0 24.334 24.334">
  <path id="Icon_awesome-facebook-square" data-name="Icon awesome-facebook-square" d="M21.727,2.25H2.607A2.607,2.607,0,0,0,0,4.857V23.977a2.607,2.607,0,0,0,2.607,2.607h7.455V18.311H6.64V14.417h3.422V11.449c0-3.376,2.01-5.24,5.088-5.24a20.731,20.731,0,0,1,3.016.263V9.785h-1.7a1.947,1.947,0,0,0-2.2,2.1v2.528h3.736l-.6,3.894H14.272v8.273h7.455a2.607,2.607,0,0,0,2.607-2.607V4.857A2.607,2.607,0,0,0,21.727,2.25Z" transform="translate(0 -2.25)"/>
</svg>
