<svg xmlns="http://www.w3.org/2000/svg" width="63.232" height="84.31" viewBox="0 0 63.232 84.31">
  <defs>
    <style>
      .cls-1 {
        fill: #c8b08b;
      }
    </style>
  </defs>
  <path id="Icon_awesome-file-pdf" data-name="Icon awesome-file-pdf" class="cls-1" d="M29.953,42.171c-.823-2.635-.807-7.723-.329-7.723C31.007,34.448,30.875,40.525,29.953,42.171Zm-.28,7.772A75.983,75.983,0,0,1,25,60.268c3.013-1.153,6.422-2.832,10.358-3.606A21.331,21.331,0,0,1,29.673,49.944Zm-15.5,20.551c0,.132,2.174-.889,5.747-6.62C18.822,64.912,15.133,67.909,14.178,70.494Zm26.66-44.147H63.232V80.358A3.943,3.943,0,0,1,59.28,84.31H3.952A3.943,3.943,0,0,1,0,80.358V3.952A3.943,3.943,0,0,1,3.952,0H36.886V22.395A3.964,3.964,0,0,0,40.838,26.347ZM39.52,54.637a16.527,16.527,0,0,1-7.031-8.859c.741-3.046,1.91-7.674,1.021-10.572-.774-4.841-6.982-4.364-7.871-1.12-.823,3.013-.066,7.262,1.334,12.679a154.628,154.628,0,0,1-6.718,14.128c-.016,0-.016.016-.033.016-4.462,2.289-12.12,7.328-8.974,11.2a5.117,5.117,0,0,0,3.54,1.647c2.948,0,5.879-2.964,10.061-10.176,4.248-1.4,8.909-3.145,13.009-3.82C41.43,61.7,45.613,62.969,48.4,62.969c4.808,0,5.138-5.269,3.244-7.147-2.289-2.239-8.941-1.6-12.12-1.186ZM62.08,17.29,45.942,1.153A3.949,3.949,0,0,0,43.143,0h-.988V21.077H63.232v-1A3.939,3.939,0,0,0,62.08,17.29Zm-12.2,42.04c.675-.445-.412-1.96-7.048-1.482C48.939,60.45,49.878,59.33,49.878,59.33Z"/>
</svg>
