<svg xmlns="http://www.w3.org/2000/svg" width="24.348" height="24.342" viewBox="0 0 24.348 24.342">
  <defs>
    <style>
      .cls-1 {
        fill: #60012c;
      }
    </style>
  </defs>
  <path id="Icon_awesome-instagram" data-name="Icon awesome-instagram" class="cls-1" d="M12.171,8.168a6.241,6.241,0,1,0,6.241,6.241A6.231,6.231,0,0,0,12.171,8.168Zm0,10.3a4.057,4.057,0,1,1,4.057-4.057,4.065,4.065,0,0,1-4.057,4.057ZM20.123,7.912a1.456,1.456,0,1,1-1.456-1.456A1.452,1.452,0,0,1,20.123,7.912ZM24.257,9.39a7.2,7.2,0,0,0-1.966-5.1,7.251,7.251,0,0,0-5.1-1.966c-2.01-.114-8.033-.114-10.043,0a7.241,7.241,0,0,0-5.1,1.961A7.227,7.227,0,0,0,.08,9.384c-.114,2.01-.114,8.033,0,10.043a7.2,7.2,0,0,0,1.966,5.1,7.261,7.261,0,0,0,5.1,1.966c2.01.114,8.033.114,10.043,0a7.2,7.2,0,0,0,5.1-1.966,7.251,7.251,0,0,0,1.966-5.1c.114-2.01.114-8.028,0-10.038Zm-2.6,12.194A4.108,4.108,0,0,1,19.347,23.9c-1.6.636-5.4.489-7.175.489S6.593,24.528,5,23.9a4.108,4.108,0,0,1-2.314-2.314c-.636-1.6-.489-5.4-.489-7.175s-.141-5.578.489-7.175A4.108,4.108,0,0,1,5,4.92c1.6-.636,5.4-.489,7.175-.489s5.578-.141,7.175.489A4.108,4.108,0,0,1,21.66,7.233c.636,1.6.489,5.4.489,7.175S22.3,19.987,21.66,21.584Z" transform="translate(0.005 -2.238)"/>
</svg>
