<svg xmlns="http://www.w3.org/2000/svg" width="24.49" height="16.326" viewBox="0 0 24.49 16.326">
  <defs>
    <style>
      .cls-1 {
        opacity: 0.2;
      }
    </style>
  </defs>
  <path id="Icon_awesome-eye" data-name="Icon awesome-eye" class="cls-1" d="M24.342,12.042A13.637,13.637,0,0,0,12.245,4.5a13.639,13.639,0,0,0-12.1,7.543,1.375,1.375,0,0,0,0,1.241,13.637,13.637,0,0,0,12.1,7.542,13.639,13.639,0,0,0,12.1-7.543A1.375,1.375,0,0,0,24.342,12.042Zm-12.1,6.743a6.122,6.122,0,1,1,6.122-6.122A6.122,6.122,0,0,1,12.245,18.786Zm0-10.2a4.052,4.052,0,0,0-1.076.161,2.034,2.034,0,0,1-2.844,2.844,4.072,4.072,0,1,0,3.92-3.005Z" transform="translate(0 -4.5)"/>
</svg>
