<svg xmlns="http://www.w3.org/2000/svg" width="15.883" height="15.883" viewBox="0 0 15.883 15.883">
  <defs>
    <style>
      .cls-1 {
        fill: #60012c;
      }
    </style>
  </defs>
  <path id="Icon_metro-copyright" data-name="Icon metro-copyright" class="cls-1" d="M16.661,14.189v1.127a1.309,1.309,0,0,1-.377.92,2.508,2.508,0,0,1-.972.626,7.108,7.108,0,0,1-1.22.336,6.787,6.787,0,0,1-1.215.114,4.78,4.78,0,0,1-3.542-1.437A4.884,4.884,0,0,1,7.913,12.3a4.805,4.805,0,0,1,4.912-4.912,7.3,7.3,0,0,1,.781.047,6.672,6.672,0,0,1,.962.186,4.933,4.933,0,0,1,.956.352,2.059,2.059,0,0,1,.714.584,1.329,1.329,0,0,1,.29.838v1.127a.146.146,0,0,1-.165.165h-1.22a.146.146,0,0,1-.165-.165V9.794q0-.445-.677-.7a4.025,4.025,0,0,0-1.422-.253,3.142,3.142,0,0,0-2.363.946A3.384,3.384,0,0,0,9.6,12.245a3.642,3.642,0,0,0,.946,2.58,3.15,3.15,0,0,0,2.414,1.019,4.381,4.381,0,0,0,1.427-.248q.724-.248.724-.682v-.724a.161.161,0,0,1,.047-.119.149.149,0,0,1,.109-.047H16.5a.166.166,0,0,1,.114.047.153.153,0,0,1,.052.119Zm-3.95-8.458a6.433,6.433,0,0,0-2.57.527A6.526,6.526,0,0,0,6.621,9.779a6.524,6.524,0,0,0,0,5.139,6.526,6.526,0,0,0,3.521,3.521,6.524,6.524,0,0,0,5.139,0A6.526,6.526,0,0,0,18.8,14.918a6.524,6.524,0,0,0,0-5.139,6.526,6.526,0,0,0-3.521-3.521,6.433,6.433,0,0,0-2.57-.527Zm7.941,6.618a7.769,7.769,0,0,1-1.065,3.986,7.906,7.906,0,0,1-2.89,2.89,7.992,7.992,0,0,1-7.972,0,7.906,7.906,0,0,1-2.89-2.89,7.992,7.992,0,0,1,0-7.972,7.906,7.906,0,0,1,2.89-2.89,7.992,7.992,0,0,1,7.972,0,7.906,7.906,0,0,1,2.89,2.89A7.769,7.769,0,0,1,20.653,12.348Z" transform="translate(-4.77 -4.407)"/>
</svg>
